<svg width="78" height="79" viewBox="0 0 78 79" fill="none" xmlns="http://www.w3.org/2000/svg">
<rect y="0.419922" width="78" height="78" rx="39" fill="#FCFCFC"/>
<path d="M45 36.4199L50.6142 38.6656C51.7531 39.1211 52.5 40.2244 52.5 41.4511V54.4199" stroke="#030303" stroke-width="2.25" stroke-linecap="round" stroke-linejoin="round"/>
<path d="M33 34.9199H37.5M33 40.9199H37.5" stroke="#030303" stroke-width="2.25" stroke-linecap="round" stroke-linejoin="round"/>
<path d="M38.25 54.4199V48.4199C38.25 47.5915 37.5784 46.9199 36.75 46.9199H33.75C32.9216 46.9199 32.25 47.5915 32.25 48.4199V54.4199" stroke="#030303" stroke-width="2.25" stroke-linecap="round" stroke-linejoin="round"/>
<path d="M22.5 54.4199H55.5" stroke="#030303" stroke-width="2.25" stroke-linecap="round" stroke-linejoin="round"/>
<path d="M25.5004 54.4199L25.5 25.9198C25.5006 24.9405 26.4242 24.2244 27.3728 24.4678L43.8564 28.6974C44.5197 28.8676 44.9835 29.4655 44.9835 30.1503L45.0003 54.2705" stroke="#030303" stroke-width="2.25"/>
</svg>
