<svg width="78" height="79" viewBox="0 0 78 79" fill="none" xmlns="http://www.w3.org/2000/svg">
<rect y="0.419922" width="78" height="78" rx="39" fill="#FCFCFC"/>
<path d="M37.0776 31.7121L43.5 45.4195C40.25 45.4195 39.2609 43.7051 35.8696 41.9909C33.1565 40.6195 29.3696 40.8481 28.2391 41.1338L32.7861 37.9192C33.2488 37.592 33.4801 37.4285 33.5541 37.1795C33.628 36.9305 33.5234 36.6671 33.3142 36.1406L32.6778 34.5384C32.4398 33.9393 32.3208 33.6397 32.1058 33.4224C32.0308 33.3467 31.9481 33.2792 31.8588 33.2211C31.6027 33.0541 31.2854 32.9978 30.6506 32.8852L25.7747 32.0201C24.7481 31.8379 24 30.9455 24 29.9027C24 28.5928 25.1613 27.5872 26.4578 27.7745L33.0514 28.7268C34.2391 28.8983 34.8329 28.984 35.3282 29.2671C35.5346 29.3852 35.7263 29.5273 35.8992 29.6906C36.3139 30.0823 36.5685 30.6256 37.0776 31.7121Z" stroke="#030303" stroke-width="2.25" stroke-linecap="round" stroke-linejoin="round"/>
<path d="M49.5 40.9199C51.9853 40.9199 54 38.9052 54 36.4199C54 33.9346 51.9853 31.9199 49.5 31.9199C47.0147 31.9199 45 33.9346 45 36.4199C45 38.9052 47.0147 40.9199 49.5 40.9199Z" stroke="#030303" stroke-width="2.25" stroke-linecap="round" stroke-linejoin="round"/>
<path d="M24 48.5464C25.5833 43.249 32.6528 45.6803 38.25 48.5464C43.8472 51.4124 49.5 53.2361 52.5 48.5464" stroke="#030303" stroke-width="2.25" stroke-linecap="round" stroke-linejoin="round"/>
</svg>
