<svg width="78" height="79" viewBox="0 0 78 79" fill="none" xmlns="http://www.w3.org/2000/svg">
<rect y="0.0820312" width="78" height="78" rx="39" fill="#FCFCFC"/>
<path d="M34.5 36.082C34.5 41.881 39 46.582 39 46.582C39 46.582 43.5 41.881 43.5 36.082C43.5 30.283 39 25.582 39 25.582C39 25.582 34.5 30.283 34.5 36.082Z" stroke="#030303" stroke-width="2.25" stroke-linejoin="round"/>
<path d="M30.4964 33.082C27.1713 31.6513 24 31.582 24 31.582C24 31.582 24.1436 38.1541 28.2857 42.2964C32.4279 46.4385 39 46.582 39 46.582C39 46.582 45.5721 46.4385 49.7144 42.2964C53.8565 38.1541 54 31.582 54 31.582C54 31.582 50.8287 31.6513 47.5036 33.082" stroke="#030303" stroke-width="2.25" stroke-linecap="round" stroke-linejoin="round"/>
<path d="M39.0311 46.582C38.7816 48.582 39.9906 52.582 44.2703 52.582C47.264 52.582 48.7608 49.582 54 52.582C53.4 49.5819 52.1997 47.6619 50.4494 46.582M38.9689 46.582C39.2184 48.582 38.0094 52.582 33.7298 52.582C30.736 52.582 29.2391 49.582 24 52.582C24.6001 49.5819 25.8003 47.6619 27.5506 46.582" stroke="#030303" stroke-width="2.25" stroke-linecap="round" stroke-linejoin="round"/>
</svg>
