<svg width="78" height="79" viewBox="0 0 78 79" fill="none" xmlns="http://www.w3.org/2000/svg">
<rect y="0.0820312" width="78" height="78" rx="39" fill="#FCFCFC"/>
<path d="M40.5 31.582C40.5 34.8957 37.8137 37.582 34.5 37.582C31.1863 37.582 28.5 34.8957 28.5 31.582C28.5 28.2683 31.1863 25.582 34.5 25.582C37.8137 25.582 40.5 28.2683 40.5 31.582Z" stroke="#030303" stroke-width="2.25"/>
<path d="M43.5 37.582C46.8137 37.582 49.5 34.8957 49.5 31.582C49.5 28.2683 46.8137 25.582 43.5 25.582" stroke="#030303" stroke-width="2.25" stroke-linecap="round" stroke-linejoin="round"/>
<path d="M37.5 42.082H31.5C27.3579 42.082 24 45.4399 24 49.582C24 51.2389 25.3431 52.582 27 52.582H42C43.6569 52.582 45 51.2389 45 49.582C45 45.4399 41.6421 42.082 37.5 42.082Z" stroke="#030303" stroke-width="2.25" stroke-linejoin="round"/>
<path d="M46.5 42.082C50.6421 42.082 54 45.4399 54 49.582C54 51.2389 52.6569 52.582 51 52.582H48.75" stroke="#030303" stroke-width="2.25" stroke-linecap="round" stroke-linejoin="round"/>
</svg>
